<?xml version="1.0" standalone="no"?>
<!DOCTYPE svg PUBLIC "-//W3C//DTD SVG 1.1//EN"
	"http://www.w3.org/Graphics/SVG/1.1/DTD/svg11.dtd">
<svg xmlns="http://www.w3.org/2000/svg" version="1.1"
	xmlns:xlink="http://www.w3.org/1999/xlink"
	color="black"
	width="398.00px" height="82.00px">
<style type="text/css">
.fill {fill: currentColor}
.stroke {stroke: currentColor; fill: none}
text{white-space: pre}
</style>
<title>scale_C_major_5_mixolydian.abc (1) tune 1</title>
<!-- Creator: abcm2ps-8.13.12 -->
<!-- CreationDate: Jul 12, 2017 17:44 -->
<!-- CommandLine: -g scale_C_major_5_mixolydian.abc -O scale_C_major_5_mixolydian_.svg -w 10cm -->
<g stroke-width="0.70">
<path class="stroke" stroke-width="1"
	d="M388.00 59.00v-24.00"/>
<path d="m10.00 59.00
	h378.00
	M10.00 53.00
	h378.00
	M10.00 47.00
	h378.00
	M10.00 41.00
	h378.00
	M10.00 35.00
	h378.00
	" class="stroke"/>
<defs>
<path id="utclef" class="fill" d="m-50 -90
	c-72 -41 -72 -158 52 -188
	150 -10 220 188 90 256
	-114 52 -275 0 -293 -136
	-15 -181 93 -229 220 -334
	88 -87 79 -133 62 -210
	-51 33 -94 105 -89 186
	17 267 36 374 49 574
	6 96 -19 134 -77 135
	-80 1 -126 -93 -61 -133
	85 -41 133 101 31 105
	23 17 92 37 90 -92
	-10 -223 -39 -342 -50 -617
	0 -90 0 -162 96 -232
	56 72 63 230 22 289
	-74 106 -257 168 -255 316
	9 153 148 185 252 133
	86 -65 29 -192 -80 -176
	-71 12 -105 67 -59 124"/>
<use id="tclef" transform="translate(0,6) scale(0.045)"
	xlink:href="#utclef"/>
</defs>
<use x="22.00" y="53.00" xlink:href="#tclef"/>
<g font-family="serif" font-size="16" font-weight="bold" font-style="normal"
	transform="translate(40.50,58.50) scale(1.2,1)">
	<text text-anchor="middle">4</text>
	<text y="-12" text-anchor="middle">4</text>
</g>
<defs>
<path id="hl" class="stroke" d="m-6 0h12"/>
</defs>
<use x="58.50" y="65.00" xlink:href="#hl"/>
<defs>
<ellipse id="hd" rx="4.1" ry="2.9"
	transform="rotate(-20)" class="fill"/>
</defs>
<use x="58.50" y="65.00" xlink:href="#hd"/>
<path d="M62.00 65.00v-21.00" class="stroke"/>
<use x="101.30" y="62.00" xlink:href="#hd"/>
<path d="M104.80 62.00v-21.00" class="stroke"/>
<use x="144.10" y="59.00" xlink:href="#hd"/>
<path d="M147.60 59.00v-21.00" class="stroke"/>
<use x="186.90" y="56.00" xlink:href="#hd"/>
<path d="M190.40 56.00v-21.00" class="stroke"/>
<use x="229.70" y="53.00" xlink:href="#hd"/>
<path d="M233.20 53.00v-21.00" class="stroke"/>
<use x="272.50" y="50.00" xlink:href="#hd"/>
<path d="M276.00 50.00v-21.00" class="stroke"/>
<use x="315.30" y="47.00" xlink:href="#hd"/>
<defs>
<path id="uflat" class="fill" d="
	m100 -746
	h32
	v734
	l-32 4
	m32 -332
	c46 -72 152 -90 208 -20
	100 110 -120 326 -208 348
	m0 -28
	c54 0 200 -206 130 -290
	-50 -60 -130 -4 -130 34"/>
<use id="ft0" transform="translate(-3.5,3.5) scale(0.018)"
	xlink:href="#uflat"/>
</defs>
<use x="306.30" y="47.00" xlink:href="#ft0"/>
<path d="M318.80 47.00v-21.00" class="stroke"/>
<use x="358.00" y="44.00" xlink:href="#hd"/>
<path d="M354.50 44.00v21.00" class="stroke"/>
</g>
</svg>
