<?xml version="1.0" standalone="no"?>
<!DOCTYPE svg PUBLIC "-//W3C//DTD SVG 1.1//EN"
	"http://www.w3.org/Graphics/SVG/1.1/DTD/svg11.dtd">
<svg xmlns="http://www.w3.org/2000/svg"
     xmlns:xlink="http://www.w3.org/1999/xlink"
     xml:space='preserve'
	viewBox="50 30 130 130">
<title>G_13.abc</title>
<g transform="scale(0.750)">
<path stroke="currentColor" fill="none"
	d="M67.20 132.89h85.00m-85.00 -6h85.00m-85.00 -6h85.00m-85.00 -6h85.00m-85.00 -6h85.00"/>
<defs>
<path id="utclef" fill="currentColor" d="m-50 -90
	c-72 -41 -72 -158 52 -188
	c150 -10 220 188 90 256
	c-114 52 -275 0 -293 -136
	c-15 -181 93 -229 220 -334
	c88 -87 79 -133 62 -210
	c-51 33 -94 105 -89 186
	c17 267 36 374 49 574
	c6 96 -19 134 -77 135
	c-80 1 -126 -93 -61 -133
	c85 -41 133 101 31 105
	c23 17 92 37 90 -92
	c-10 -223 -39 -342 -50 -617
	c0 -90 0 -162 96 -232
	c56 72 63 230 22 289
	c-74 106 -257 168 -255 316
	c9 153 148 185 252 133
	c86 -65 29 -192 -80 -176
	c-71 12 -105 67 -59 124"/>
<use id="tclef" transform="scale(0.045)"
	xlink:href="#utclef"/>
</defs>
<use x="79.20" y="132.89" xlink:href="#tclef"/>
<g font-family="Times" font-size="15" font-weight="bold" font-style="normal"
	transform="translate(97.70,132.89) scale(1.2,1)">
	<text y="-1" text-anchor="middle">4</text>
	<text y="-13" text-anchor="middle">4</text>
</g>
<defs>
<path id="hl" stroke="currentColor" d="m-6 0h12"/>
</defs>
<use x="116.20" y="102.89" xlink:href="#hl"/>
<use x="116.20" y="96.89" xlink:href="#hl"/>
<use x="116.20" y="90.89" xlink:href="#hl"/>
<defs>
<path id="Hd" fill="currentColor" d="m3 -1.6
	c-1 -1.8 -7 1.4 -6 3.2
	c1 1.8 7 -1.4 6 -3.2
	m0.5 -0.3
	c2 3.8 -5 7.6 -7 3.8
	c-2 -3.8 5 -7.6 7 -3.8"/>
</defs>
<use x="116.20" y="90.89" xlink:href="#Hd"/>
<path d="M112.70 90.89v54.00" stroke="currentColor" fill="none"/>
<use x="116.20" y="126.89" xlink:href="#Hd"/>
<use x="116.20" y="120.89" xlink:href="#Hd"/>
<use x="116.20" y="114.89" xlink:href="#Hd"/>
<path stroke="currentColor" fill="none"
	d="M152.20 132.89v-24.00"/>
</g>
</svg>
