<?xml version="1.0" standalone="no"?>
<!DOCTYPE svg PUBLIC "-//W3C//DTD SVG 1.1//EN"
	"http://www.w3.org/Graphics/SVG/1.1/DTD/svg11.dtd">
<svg xmlns="http://www.w3.org/2000/svg"
     xmlns:xlink="http://www.w3.org/1999/xlink"
     xml:space='preserve'
	viewBox="50 30 130 130">
<title>Gbdim.abc</title>
<g transform="scale(0.750)">
<path stroke="currentColor" fill="none"
	d="M67.20 132.89h103.00m-103.00 -6h103.00m-103.00 -6h103.00m-103.00 -6h103.00m-103.00 -6h103.00"/>
<defs>
<path id="utclef" fill="currentColor" d="m-50 -90
	c-72 -41 -72 -158 52 -188
	c150 -10 220 188 90 256
	c-114 52 -275 0 -293 -136
	c-15 -181 93 -229 220 -334
	c88 -87 79 -133 62 -210
	c-51 33 -94 105 -89 186
	c17 267 36 374 49 574
	c6 96 -19 134 -77 135
	c-80 1 -126 -93 -61 -133
	c85 -41 133 101 31 105
	c23 17 92 37 90 -92
	c-10 -223 -39 -342 -50 -617
	c0 -90 0 -162 96 -232
	c56 72 63 230 22 289
	c-74 106 -257 168 -255 316
	c9 153 148 185 252 133
	c86 -65 29 -192 -80 -176
	c-71 12 -105 67 -59 124"/>
<use id="tclef" transform="scale(0.045)"
	xlink:href="#utclef"/>
</defs>
<use x="79.20" y="132.89" xlink:href="#tclef"/>
<g font-family="Times" font-size="15" font-weight="bold" font-style="normal"
	transform="translate(97.70,132.89) scale(1.2,1)">
	<text y="-1" text-anchor="middle">4</text>
	<text y="-13" text-anchor="middle">4</text>
</g>
<defs>
<path id="Hd" fill="currentColor" d="m3 -1.6
	c-1 -1.8 -7 1.4 -6 3.2
	c1 1.8 7 -1.4 6 -3.2
	m0.5 -0.3
	c2 3.8 -5 7.6 -7 3.8
	c-2 -3.8 5 -7.6 7 -3.8"/>
</defs>
<use x="134.20" y="114.89" xlink:href="#Hd"/>
<defs>
<path id="udbleflat" fill="currentColor" d="
	m20 -746
	h24
	v734
	l-24 4
	m24 -332
	c34 -72 114 -90 156 -20
	c75 110 -98 326 -156 348
	m0 -28
	c40 0 150 -206 97 -290
	c-37 -60 -97 -4 -97 34
	m226 -450
	h24
	v734
	l-24 4
	m24 -332
	c34 -72 114 -90 156 -20
	c75 110 -98 326 -156 348
	m0 -28
	c40 0 150 -206 97 -290
	c-37 -60 -97 -4 -97 34"/>
<use id="dft0" transform="translate(-4,3.5) scale(0.018)"
	xlink:href="#udbleflat"/>
</defs>
<use x="124.20" y="114.89" xlink:href="#dft0"/>
<path d="M130.70 114.89v30.00" stroke="currentColor" fill="none"/>
<use x="134.20" y="126.89" xlink:href="#Hd"/>
<defs>
<path id="uflat" fill="currentColor" d="
	m100 -746
	h32
	v734
	l-32 4
	m32 -332
	c46 -72 152 -90 208 -20
	c100 110 -120 326 -208 348
	m0 -28
	c54 0 200 -206 130 -290
	c-50 -60 -130 -4 -130 34"/>
<use id="ft0" transform="translate(-3.5,3.5) scale(0.018)"
	xlink:href="#uflat"/>
</defs>
<use x="119.70" y="126.89" xlink:href="#ft0"/>
<use x="134.20" y="120.89" xlink:href="#Hd"/>
<use x="112.70" y="120.89" xlink:href="#dft0"/>
<path stroke="currentColor" fill="none"
	d="M170.20 132.89v-24.00"/>
</g>
</svg>
