<?xml version="1.0" standalone="no"?>
<!DOCTYPE svg PUBLIC "-//W3C//DTD SVG 1.1//EN"
	"http://www.w3.org/Graphics/SVG/1.1/DTD/svg11.dtd">
<svg xmlns="http://www.w3.org/2000/svg" version="1.1"
	xmlns:xlink="http://www.w3.org/1999/xlink"
	color="black"
	width="133.40px" height="82.00px">
<style type="text/css">
.fill {fill: currentColor}
.stroke {stroke: currentColor; fill: none}
text{white-space: pre}
</style>
<title>Esh_9.abc (1) tune 1</title>
<!-- Creator: abcm2ps-8.13.12 -->
<!-- CreationDate: Jul 12, 2017 15:57 -->
<!-- CommandLine: -g Esh_9.abc -O Esh_9_.svg -w 3cm -->
<g stroke-width="0.70">
<path class="stroke" stroke-width="1"
	d="M123.40 59.00v-24.00"/>
<path d="m10.00 59.00
	h113.40
	M10.00 53.00
	h113.40
	M10.00 47.00
	h113.40
	M10.00 41.00
	h113.40
	M10.00 35.00
	h113.40
	" class="stroke"/>
<defs>
<path id="utclef" class="fill" d="m-50 -90
	c-72 -41 -72 -158 52 -188
	150 -10 220 188 90 256
	-114 52 -275 0 -293 -136
	-15 -181 93 -229 220 -334
	88 -87 79 -133 62 -210
	-51 33 -94 105 -89 186
	17 267 36 374 49 574
	6 96 -19 134 -77 135
	-80 1 -126 -93 -61 -133
	85 -41 133 101 31 105
	23 17 92 37 90 -92
	-10 -223 -39 -342 -50 -617
	0 -90 0 -162 96 -232
	56 72 63 230 22 289
	-74 106 -257 168 -255 316
	9 153 148 185 252 133
	86 -65 29 -192 -80 -176
	-71 12 -105 67 -59 124"/>
<use id="tclef" transform="translate(0,6) scale(0.045)"
	xlink:href="#utclef"/>
</defs>
<use x="22.00" y="53.00" xlink:href="#tclef"/>
<g font-family="serif" font-size="16" font-weight="bold" font-style="normal"
	transform="translate(40.50,58.50) scale(1.2,1)">
	<text text-anchor="middle">4</text>
	<text y="-12" text-anchor="middle">4</text>
</g>
<defs>
<path id="Hd" class="fill" d="m3 -1.6
	c-1 -1.8 -7 1.4 -6 3.2
	1 1.8 7 -1.4 6 -3.2
	m0.5 -0.3
	c2 3.8 -5 7.6 -7 3.8
	-2 -3.8 5 -7.6 7 -3.8"/>
</defs>
<use x="72.50" y="35.00" xlink:href="#Hd"/>
<defs>
<path id="udblesharp" class="fill" d="
	m240 -282
	c40 -38 74 -68 158 -68
	v-96
	h-96
	c0 84 -30 118 -68 156
	-40 -38 -70 -72 -70 -156
	h-96
	v96
	c86 0 120 30 158 68
	-38 38 -72 68 -158 68
	v96
	h96
	c0 -84 30 -118 70 -156
	38 38 68 72 68 156
	h96
	v-96
	c-84 0 -118 -30 -158 -68"/>
<use id="dsh0" transform="translate(-4,5) scale(0.018)"
	xlink:href="#udblesharp"/>
</defs>
<use x="62.50" y="35.00" xlink:href="#dsh0"/>
<path d="M69.00 35.00v43.00" class="stroke"/>
<use x="72.50" y="59.00" xlink:href="#Hd"/>
<defs>
<path id="usharp" class="fill" d="
	m136 -702
	v890
	h32
	v-890
	m128 840
	h32
	v-888
	h-32
	m-232 286
	v116
	l338 -96
	v-116
	m-338 442
	v116
	l338 -98
	v-114"/>
<use id="sh0" transform="translate(-4,5) scale(0.018)"
	xlink:href="#usharp"/>
</defs>
<use x="55.50" y="59.00" xlink:href="#sh0"/>
<use x="72.50" y="53.00" xlink:href="#Hd"/>
<use x="62.50" y="53.00" xlink:href="#dsh0"/>
<use x="72.50" y="47.00" xlink:href="#Hd"/>
<use x="55.50" y="47.00" xlink:href="#sh0"/>
</g>
</svg>
